<?xml version="1.0" encoding="UTF-8"?>
<svg version="1.1" xmlns="http://www.w3.org/2000/svg" width="238" height="200">
<path d="M0 0 C1.82724609 0.01353516 1.82724609 0.01353516 3.69140625 0.02734375 C4.59761719 0.03894531 5.50382812 0.05054688 6.4375 0.0625 C5.95097979 7.11704304 4.33696858 12.90149479 1.6875 19.4375 C1.35234375 20.32566406 1.0171875 21.21382812 0.671875 22.12890625 C0.3315625 22.98097656 -0.00875 23.83304688 -0.359375 24.7109375 C-0.66198242 25.47583496 -0.96458984 26.24073242 -1.27636719 27.02880859 C-3.01571023 29.77913653 -4.60880008 30.70366989 -7.5625 32.0625 C-10.93383789 32.72265625 -10.93383789 32.72265625 -14.78515625 33.125 C-15.47874237 33.20142731 -16.17232849 33.27785461 -16.88693237 33.3565979 C-18.36660067 33.51855298 -19.84685768 33.67520381 -21.3276062 33.82696533 C-25.19232303 34.22318595 -29.05286739 34.65697538 -32.9140625 35.0859375 C-33.67180466 35.16903168 -34.42954681 35.25212585 -35.21025085 35.33773804 C-40.99791882 35.97875931 -46.74864414 36.77615252 -52.5 37.6875 C-61.81496788 39.10080547 -71.19269316 40.07620454 -80.5625 41.0625 C-19.8425 41.0625 40.8775 41.0625 103.4375 41.0625 C91.8875 39.7425 80.3375 38.4225 68.4375 37.0625 C63.8175 36.4025 59.1975 35.7425 54.4375 35.0625 C49.17221542 34.42736314 43.90722683 33.79696512 38.63671875 33.20703125 C37.62996094 33.08714844 36.62320313 32.96726563 35.5859375 32.84375 C34.69052246 32.74126953 33.79510742 32.63878906 32.87255859 32.53320312 C30.35601376 32.0467485 28.59527547 31.44037784 26.4375 30.0625 C23.38532266 24.97553776 21.3341425 19.45473677 19.1875 13.9375 C18.91695801 13.25671387 18.64641602 12.57592773 18.36767578 11.87451172 C16.82394482 7.78804812 16.13851057 4.42502757 16.4375 0.0625 C33.20320897 -0.76054389 50.04132 2.04640823 66.578125 4.53515625 C70.96365446 5.13439358 75.35589707 5.627565 79.75488281 6.11669922 C97.85972043 8.13836316 97.85972043 8.13836316 106.6875 9.4375 C107.39487305 9.52700928 108.10224609 9.61651855 108.83105469 9.70874023 C113.96714941 10.51808328 116.87598017 12.31623275 120.4375 16.0625 C121.69830294 18.53927732 122.67025259 20.7202309 123.5625 23.3125 C124.02136126 24.56846882 124.48232815 25.8236702 124.9453125 27.078125 C125.27250149 28.00288179 125.27250149 28.00288179 125.60630035 28.94632053 C126.38750394 31.05750635 126.38750394 31.05750635 127.44002533 32.93062496 C131.07482517 39.83448151 131.00351579 46.31795394 130.95507812 53.99243164 C130.96050802 55.37978344 130.96763552 56.76712947 130.97631836 58.15446472 C130.99445028 61.89829685 130.98752708 65.6416848 130.97480202 69.38552403 C130.96462344 73.31622656 130.97408092 77.24689291 130.98034668 81.17759705 C130.98760817 87.77544941 130.97807403 94.37312221 130.95898438 100.97094727 C130.93720936 108.58452515 130.94427739 116.19767461 130.96629 123.81124216 C130.98447611 130.36524706 130.98698696 136.91912344 130.97653532 143.47314543 C130.97031913 147.38014362 130.96941296 151.2869408 130.98268127 155.19392586 C130.99428653 158.8672447 130.9861299 162.54001414 130.96310425 166.213274 C130.95534421 168.19404482 130.96713242 170.17486244 130.97961426 172.15560913 C130.90049754 180.52230774 129.95755225 186.09535704 124.25390625 192.5234375 C123.51011719 193.15507812 122.76632813 193.78671875 122 194.4375 C121.25878906 195.08460938 120.51757812 195.73171875 119.75390625 196.3984375 C114.7661098 199.98157627 110.22842399 200.35421576 104.22135925 200.32992554 C103.39785408 200.33445665 102.5743489 200.33898776 101.72588903 200.34365618 C98.968488 200.35630894 96.21128426 200.35467924 93.45385742 200.35302734 C91.475975 200.35901206 89.49809491 200.36581748 87.5202179 200.37338257 C82.14823484 200.39105594 76.77631549 200.39573853 71.40430617 200.39701414 C66.91878502 200.39891354 62.4332787 200.40627158 57.94776326 200.41335833 C47.36384951 200.42964512 36.77996977 200.43452703 26.19604492 200.43310547 C15.28118177 200.43190408 4.36651636 200.45300486 -6.54829675 200.4845928 C-15.92170288 200.51075235 -25.29504442 200.52147289 -34.66848677 200.52019465 C-40.26569836 200.51968491 -45.86273424 200.52537507 -51.45990944 200.54655075 C-56.725388 200.56592749 -61.99052314 200.5660613 -67.25601387 200.55151749 C-69.1861191 200.54942757 -71.11624579 200.55414114 -73.04631424 200.5662384 C-75.68641426 200.58171127 -78.32533312 200.57236959 -80.96540833 200.55697632 C-81.72466655 200.56726344 -82.48392478 200.57755057 -83.26619083 200.58814943 C-90.327556 200.49750269 -96.39704041 197.82485418 -101.375 192.75 C-102.18904297 191.95142578 -102.18904297 191.95142578 -103.01953125 191.13671875 C-108.29053612 184.05088689 -108.01804154 177.09915158 -108.0300293 168.55004883 C-108.04229625 167.18245883 -108.05575106 165.81487905 -108.07029724 164.4473114 C-108.10523797 160.74401042 -108.12059214 157.04088761 -108.13013434 153.33744264 C-108.13673436 151.01403475 -108.14708893 148.69067299 -108.15863991 146.36728477 C-108.19836069 138.23287671 -108.22038571 130.09860956 -108.22827148 121.96411133 C-108.23610728 114.43116961 -108.28516577 106.89925647 -108.35333699 99.36664182 C-108.41007964 92.86514961 -108.43519788 86.36399446 -108.43721896 79.86225718 C-108.43904166 75.9947118 -108.45309089 72.1282487 -108.50003624 68.26096535 C-108.72797687 48.29049317 -107.52961567 30.83210742 -95.5625 14.0625 C-92.23797604 10.732487 -88.44904231 10.20048941 -83.953125 9.5 C-83.20613342 9.37633057 -82.45914185 9.25266113 -81.68951416 9.12524414 C-74.04584045 7.901492 -66.3645662 7.06662299 -58.66394043 6.29776001 C-54.62860447 5.8940274 -50.59547976 5.46951727 -46.5625 5.04296875 C-45.77776306 4.96008102 -44.99302612 4.8771933 -44.18450928 4.79179382 C-36.33754684 3.9513441 -28.53467892 2.87051571 -20.734375 1.67578125 C-13.79617508 0.63078847 -7.03103815 -0.06826251 0 0 Z M-37.4375 87.4375 C-41.76814335 92.78711826 -40.78388874 98.21215336 -40.8125 104.875 C-40.833125 106.06416016 -40.85375 107.25332031 -40.875 108.47851562 C-40.88015625 109.62642578 -40.8853125 110.77433594 -40.890625 111.95703125 C-40.8999707 113.00737549 -40.90931641 114.05771973 -40.91894531 115.13989258 C-40.50704184 118.51721889 -39.58167158 120.34513508 -37.5625 123.0625 C-33.8251144 125.5540904 -31.98918417 125.52043285 -27.5625 125.0625 C-24.80920979 123.26687595 -23.03622539 122.00995078 -21.5625 119.0625 C-21.2630429 114.46407809 -21.28436362 109.85701583 -21.25 105.25 C-21.20649414 103.32317383 -21.20649414 103.32317383 -21.16210938 101.35742188 C-21.15373047 100.11927734 -21.14535156 98.88113281 -21.13671875 97.60546875 C-21.12213623 96.47133545 -21.10755371 95.33720215 -21.0925293 94.16870117 C-21.66318532 90.39703539 -22.92773916 88.76654018 -25.5625 86.0625 C-30.04892468 83.81928766 -33.65294159 84.31112566 -37.4375 87.4375 Z M45.4375 89.0625 C43.16309531 93.61130937 44.11732026 99.81887268 44.0625 104.8125 C44.02511719 106.08867188 43.98773438 107.36484375 43.94921875 108.6796875 C43.6563417 116.25277258 43.6563417 116.25277258 46.7109375 122.91015625 C50.0632924 125.55649945 51.41007501 125.90713502 55.50390625 125.58984375 C58.83921214 124.68021487 60.4149221 122.75927054 62.4375 120.0625 C64.03299443 115.26404894 63.62174204 110.1852134 63.625 105.1875 C63.64336914 103.71603516 63.64336914 103.71603516 63.66210938 102.21484375 C63.77173933 93.57358621 63.77173933 93.57358621 59.75 86.1875 C54.0132506 83.39664894 49.78182352 84.71817648 45.4375 89.0625 Z M-18.5625 155.0625 C-20.89546251 157.88967213 -20.89546251 157.88967213 -20.3125 161.125 C-19.8031756 164.161959 -19.8031756 164.161959 -17.5625 166.0625 C-15.5023267 166.81656896 -13.41368556 167.49416461 -11.3125 168.125 C-10.19359375 168.46660156 -9.0746875 168.80820313 -7.921875 169.16015625 C-1.62436639 170.85169635 4.26860909 171.24487637 10.75 171.25 C11.9555957 171.26836914 11.9555957 171.26836914 13.18554688 171.28710938 C21.14907742 171.30632948 28.31945463 169.57146397 35.875 167.125 C36.88433594 166.80660156 37.89367187 166.48820313 38.93359375 166.16015625 C41.73511224 165.200361 41.73511224 165.200361 43.4375 162.0625 C43.1133631 158.74009676 42.82973697 157.45473697 40.4375 155.0625 C35.63637087 154.61062902 31.50016124 155.74460874 26.9375 157.0625 C14.69655136 160.31686985 0.092469 160.8899845 -11.5625 155.0625 C-15.0625 154.72916667 -15.0625 154.72916667 -18.5625 155.0625 Z " fill="#FDFDFD" transform="translate(107.5625,-0.0625)"/>
</svg>
